<svg width="191" height="42" viewBox="0 0 191 42" fill="none" xmlns="http://www.w3.org/2000/svg">
<path d="M188.639 20.2421C190.101 19.4903 191.063 18.008 190.997 16.2474C191.063 13.9014 189.19 11.9623 186.924 12.0307C186.278 11.9623 185.706 12.0936 185.21 12.2527L162.487 21.5736C160.972 22.3226 159.918 23.8622 159.915 25.5683C159.918 28.0483 161.792 29.9884 164.202 30.0069C164.797 29.9848 165.382 29.8336 165.917 29.563L188.639 20.2421ZM6.19888e-06 14.0281V35.1112H15.0054V30.2288H6.00217V26.8999H14.5767V22.0175H6.00217V18.9105H15.0054V14.0281H6.19888e-06ZM38.7997 14.0281H44.5875V35.1112H38.7997V14.0281ZM33.2263 24.4587C34.5258 23.3185 35.3225 21.7086 35.3699 19.7982C35.3225 16.7125 32.8216 14.1233 29.7965 14.0281H18.8639V35.1112H24.8661V18.9105H27.8672C28.9086 18.8439 29.7304 19.666 29.7965 20.6859C29.766 21.2053 29.5529 21.6952 29.1975 22.0632C28.8421 22.4311 28.3689 22.6517 27.8672 22.6833H24.8661V27.3437H27.8672L30.6539 35.1112H36.4417L33.2263 26.0122C33.17 25.83 33.0869 25.7144 33.0119 25.5683C32.752 25.3677 32.5742 24.835 33.2263 24.4587ZM120.686 14.0281V35.1112H126.688V23.7929L133.119 35.1112H139.55V14.0281H133.762V25.1245L127.546 14.0281H120.686ZM108.682 18.0228C110.994 18.1254 112.832 20.98 112.755 24.4587C112.832 28.0215 110.994 30.8752 108.682 30.8946C106.459 30.8752 104.622 28.0215 104.609 24.4587C104.622 20.98 106.459 18.1254 108.682 18.0228V13.3623C103.233 13.3854 98.7793 18.3612 98.8213 24.4587C98.7793 30.6394 103.233 35.6161 108.682 35.555C114.22 35.6161 118.674 30.6394 118.757 24.4587C118.674 18.3612 114.22 13.3854 108.682 13.3623V18.0228ZM46.7311 24.2367C46.7633 34.094 55.5834 35.4811 57.2349 35.555C58.7095 35.4811 61.0541 35.3655 64.0945 34.4454V29.563C58.5979 32.0135 52.9039 30.6264 52.9476 24.2367C52.9039 17.9118 58.9328 16.0624 63.6658 19.5763V14.4719C61.0541 13.1727 58.5979 13.4039 57.0205 13.3623C55.4718 13.4039 46.7633 14.4442 46.7311 24.2367ZM79.743 18.9105V14.6939C77.9406 13.8089 75.1208 13.7507 73.5265 13.8062C71.7714 13.7507 67.418 14.4442 66.4525 17.8009C65.6317 21.1483 66.6365 24.7315 70.0967 25.7902C73.5577 27.0432 75.7907 27.7367 75.027 29.7849C74.4509 31.6667 69.8734 31.0888 67.0956 30.0069L66.4525 34.4454C70.0967 35.3655 73.781 35.5967 76.5276 34.8893C79.3634 33.9784 80.9265 31.6667 81.2435 29.3411C81.5964 26.812 80.8148 24.1535 78.2425 23.1271C75.4557 22.073 74.7859 22.073 72.8834 21.1298C70.9907 20.2236 71.6606 17.7962 74.5983 17.8009C76.2373 17.6806 78.2469 18.2586 79.743 18.9105ZM188.639 8.25797C190.101 7.46921 191.063 5.98784 190.997 4.26328C191.063 1.88033 189.19 -0.058756 186.924 0.0466595C186.278 -0.058756 185.706 0.0725511 185.21 0.268587L162.487 9.58954C160.972 10.3016 159.918 11.8412 159.915 13.5842C159.918 16.0273 161.792 17.9673 164.202 18.0228C164.792 17.9652 165.37 17.8156 165.917 17.5789L188.639 8.25797ZM96.4633 18.9105V14.6939C94.5751 13.8089 91.7563 13.7507 90.0324 13.8062C88.4068 13.7507 84.0526 14.4442 83.1728 17.8009C82.2662 21.1483 83.2711 24.7315 86.817 25.7902C90.1932 27.0432 92.4261 27.7367 91.7473 29.7849C91.0864 31.6667 86.5088 31.0888 83.8159 30.0069L83.1728 34.4454C86.7321 35.3655 90.4165 35.5967 93.2479 34.8893C95.9989 33.9784 97.5619 31.6667 97.9639 29.3411C98.2318 26.812 97.4503 24.1535 94.7484 23.1271C92.0912 22.073 91.4213 22.073 89.6037 21.1298C87.6253 20.2236 88.2952 17.7962 91.3186 17.8009C92.8727 17.6806 94.8824 18.2586 96.4633 18.9105ZM188.639 32.2261C190.101 31.5113 191.063 30.0291 190.997 28.2314C191.063 25.9225 189.19 23.9834 186.924 24.0148C186.278 23.9834 185.706 24.1138 185.21 24.4587L162.487 33.7796C160.972 34.3437 159.918 35.8824 159.915 37.7743C159.918 40.0694 161.792 42.0085 164.202 41.9909C164.793 42.0085 165.445 41.8356 165.917 41.5471L188.639 32.2261Z" fill="#170038"/>
</svg>
