<svg width="112" height="52" viewBox="0 0 112 52" fill="none" xmlns="http://www.w3.org/2000/svg">
<path d="M58.1807 44.1493C58.1807 43.9253 58.2553 43.7479 58.4047 43.5893C58.554 43.4306 58.7407 43.3652 58.9554 43.3652C59.1794 43.3652 59.3567 43.4399 59.5154 43.5893C59.6741 43.7386 59.7394 43.9253 59.7394 44.1493C59.7394 44.3733 59.6648 44.5506 59.5154 44.7C59.3661 44.8493 59.1794 44.924 58.9554 44.924C58.7407 44.924 58.5634 44.8493 58.4047 44.7C58.2553 44.5506 58.1807 44.3733 58.1807 44.1493ZM58.358 50.935V45.9134H59.5434V50.935H58.358Z" fill="#170038"/>
<path d="M61.8769 50.9351H60.6822V45.9134H61.8489V46.5855C62.0169 46.2961 62.2316 46.0908 62.5023 45.9601C62.773 45.8294 63.053 45.7734 63.333 45.7734C63.641 45.7734 63.9117 45.8294 64.1357 45.9321C64.3597 46.0348 64.5464 46.1748 64.6958 46.3615C64.8451 46.5482 64.9571 46.7535 65.0318 46.9962C65.1064 47.2389 65.1438 47.4909 65.1438 47.7709V50.9444H63.949V47.9762C63.949 47.6682 63.8744 47.4069 63.7157 47.1829C63.557 46.9682 63.2957 46.8562 62.913 46.8562C62.5676 46.8562 62.3063 46.9682 62.1383 47.2015C61.9609 47.4349 61.8769 47.7149 61.8769 48.0416V50.9351Z" fill="#170038"/>
<path d="M68.756 50.935H67.5612L65.5171 45.9133H66.8332L68.1679 49.5069L69.4653 45.9133H70.7254L68.756 50.935Z" fill="#170038"/>
<path d="M75.4858 49.5068C75.4205 49.7308 75.3178 49.9362 75.1872 50.1229C75.0565 50.3189 74.8978 50.4869 74.7018 50.6269C74.5058 50.7669 74.2911 50.8882 74.0391 50.9629C73.7871 51.0469 73.5164 51.0842 73.2177 51.0842C72.8724 51.0842 72.5457 51.0282 72.2376 50.9069C71.9296 50.7856 71.6589 50.6082 71.4256 50.3842C71.1922 50.1602 71.0056 49.8708 70.8656 49.5348C70.7255 49.1988 70.6509 48.8254 70.6509 48.3961C70.6509 47.9947 70.7162 47.64 70.8562 47.3133C70.9869 46.9867 71.1736 46.716 71.3976 46.4826C71.6216 46.2493 71.883 46.0719 72.1816 45.9506C72.4803 45.8199 72.779 45.7639 73.0964 45.7639C73.4791 45.7639 73.8244 45.8293 74.1324 45.9506C74.4404 46.0719 74.6925 46.2493 74.9071 46.4733C75.1125 46.6973 75.2805 46.9773 75.3832 47.2947C75.4952 47.612 75.5512 47.9761 75.5512 48.3681C75.5512 48.4614 75.5512 48.5454 75.5419 48.6201C75.5325 48.6948 75.5232 48.7321 75.5232 48.7508H71.855C71.8643 48.9468 71.9016 49.1148 71.9763 49.2735C72.051 49.4321 72.1536 49.5722 72.275 49.6842C72.3963 49.8055 72.5457 49.8895 72.7043 49.9548C72.863 50.0202 73.0404 50.0482 73.227 50.0482C73.5911 50.0482 73.8711 49.9642 74.0671 49.7962C74.2631 49.6282 74.4031 49.4228 74.4871 49.1708L75.4858 49.5068ZM74.3378 47.8734C74.3284 47.7334 74.3004 47.5934 74.2538 47.4534C74.1978 47.3227 74.1231 47.2013 74.0204 47.0987C73.9177 46.996 73.7871 46.912 73.6377 46.8467C73.4884 46.7813 73.311 46.7533 73.1057 46.7533C72.919 46.7533 72.751 46.7813 72.6017 46.8467C72.4523 46.912 72.331 46.996 72.2283 47.108C72.1256 47.2107 72.0416 47.332 71.9763 47.472C71.911 47.6027 71.883 47.7427 71.8736 47.8734H74.3378Z" fill="#170038"/>
<path d="M76.8765 49.2829C76.8952 49.5069 76.9885 49.7123 77.1565 49.8803C77.3245 50.0483 77.5672 50.1416 77.8939 50.1416C78.1459 50.1416 78.3326 50.0856 78.4539 49.9736C78.5846 49.8616 78.6406 49.7216 78.6406 49.5629C78.6406 49.4229 78.5939 49.3109 78.5006 49.2082C78.4073 49.1149 78.2579 49.0402 78.0526 49.0029L77.3059 48.8349C76.8578 48.7416 76.5218 48.5549 76.2978 48.2935C76.0738 48.0322 75.9618 47.7242 75.9618 47.3695C75.9618 47.1455 76.0085 46.9401 76.1018 46.7441C76.1951 46.5481 76.3258 46.3801 76.4938 46.2307C76.6618 46.0814 76.8485 45.9694 77.0725 45.876C77.2965 45.7827 77.5392 45.7454 77.8006 45.7454C78.1553 45.7454 78.4446 45.792 78.678 45.8947C78.9113 45.9974 79.1073 46.1187 79.2567 46.2587C79.406 46.3987 79.518 46.5574 79.5927 46.7161C79.6673 46.8748 79.714 47.0241 79.7327 47.1454L78.7246 47.4348C78.706 47.3695 78.6873 47.2855 78.6499 47.2015C78.6126 47.1081 78.5659 47.0334 78.4913 46.9494C78.4166 46.8748 78.3233 46.8094 78.2113 46.7628C78.0992 46.7068 77.9592 46.6881 77.7912 46.6881C77.5766 46.6881 77.4085 46.7441 77.2685 46.8561C77.1379 46.9681 77.0632 47.1081 77.0632 47.2668C77.0632 47.4068 77.1099 47.5188 77.1939 47.6028C77.2872 47.6962 77.4085 47.7522 77.5672 47.7895L78.3326 47.9482C78.8086 48.0508 79.1633 48.2375 79.406 48.5082C79.6487 48.7789 79.77 49.1056 79.77 49.4696C79.77 49.6656 79.7327 49.8523 79.6487 50.039C79.574 50.2256 79.4527 50.403 79.294 50.5523C79.1353 50.711 78.9393 50.8323 78.6966 50.9257C78.4539 51.019 78.1739 51.0657 77.8566 51.0657C77.4925 51.0657 77.1845 51.0097 76.9325 50.907C76.6805 50.8043 76.4658 50.6737 76.3071 50.5243C76.1391 50.3657 76.0178 50.207 75.9338 50.0296C75.8498 49.8523 75.8031 49.6936 75.7938 49.5536L76.8765 49.2829Z" fill="#170038"/>
<path d="M82.0942 45.9134H83.1396V46.9775H82.0942V49.311C82.0942 49.535 82.1502 49.6937 82.2529 49.787C82.3556 49.8897 82.5142 49.9364 82.7383 49.9364C82.8223 49.9364 82.9063 49.927 82.9903 49.9177C83.0743 49.9084 83.1303 49.899 83.1583 49.8897V50.8791C83.121 50.8884 83.0463 50.9164 82.9343 50.9444C82.8129 50.9724 82.6449 50.9911 82.4302 50.9911C81.9635 50.9911 81.5902 50.8604 81.3288 50.5991C81.0582 50.3377 80.9275 49.9737 80.9275 49.4977V46.9682H80.0034V45.9041H80.2648C80.5355 45.9041 80.7315 45.8294 80.8528 45.6801C80.9741 45.5308 81.0395 45.3441 81.0395 45.1201V44.364H82.1222V45.9134H82.0942Z" fill="#170038"/>
<path d="M83.9331 50.9349V45.9133H85.0812V46.548C85.2212 46.296 85.4359 46.0999 85.7252 45.9693C86.0052 45.8386 86.2853 45.7639 86.5746 45.7639C86.9013 45.7639 87.2 45.8386 87.4707 45.9879C87.7413 46.1373 87.9374 46.3613 88.0774 46.6506C88.2734 46.324 88.5161 46.0906 88.7961 45.9599C89.0761 45.8293 89.3748 45.7639 89.7108 45.7639C89.9348 45.7639 90.1588 45.8013 90.3735 45.8759C90.5882 45.9506 90.7749 46.0626 90.9429 46.2213C91.1109 46.38 91.2416 46.576 91.3442 46.8186C91.4469 47.0613 91.4936 47.3413 91.4936 47.6774V50.9349H90.3362V47.8734C90.3362 47.5747 90.2615 47.332 90.1028 47.136C89.9442 46.94 89.7015 46.8467 89.3655 46.8467C89.0481 46.8467 88.7961 46.9587 88.6094 47.1733C88.4227 47.388 88.3294 47.6494 88.3294 47.9667V50.9442H87.1533V47.8827C87.1533 47.5934 87.0786 47.3507 86.9293 47.1547C86.78 46.9587 86.5279 46.856 86.1826 46.856C85.8559 46.856 85.6039 46.9587 85.4172 47.1733C85.2305 47.3787 85.1372 47.6494 85.1372 47.9761V50.9536H83.9331V50.9349Z" fill="#170038"/>
<path d="M96.9629 49.5068C96.8976 49.7308 96.7949 49.9362 96.6642 50.1229C96.5335 50.3189 96.3749 50.4869 96.1789 50.6269C95.9828 50.7669 95.7682 50.8882 95.5161 50.9629C95.2641 51.0469 94.9934 51.0842 94.6948 51.0842C94.3494 51.0842 94.0227 51.0282 93.7147 50.9069C93.4067 50.7856 93.136 50.6082 92.9026 50.3842C92.6693 50.1509 92.4826 49.8708 92.3426 49.5348C92.2026 49.1988 92.1279 48.8254 92.1279 48.3961C92.1279 47.9947 92.1933 47.64 92.3333 47.3133C92.4639 46.9867 92.6506 46.716 92.8746 46.4826C93.0987 46.2493 93.36 46.0719 93.6587 45.9506C93.9574 45.8199 94.2561 45.7639 94.5734 45.7639C94.9561 45.7639 95.3015 45.8293 95.6095 45.9506C95.9175 46.0719 96.1695 46.2493 96.3842 46.4733C96.5895 46.6973 96.7575 46.9773 96.8602 47.2947C96.9722 47.612 97.0282 47.9761 97.0282 48.3681C97.0282 48.4614 97.0282 48.5454 97.0189 48.6201C97.0096 48.6948 97.0002 48.7321 97.0002 48.7508H93.332C93.3413 48.9468 93.3787 49.1148 93.4533 49.2735C93.528 49.4321 93.6307 49.5722 93.752 49.6842C93.8734 49.8055 94.0227 49.8895 94.1814 49.9548C94.3401 50.0202 94.5174 50.0482 94.7041 50.0482C95.0681 50.0482 95.3481 49.9642 95.5441 49.7962C95.7402 49.6282 95.8802 49.4228 95.9642 49.1708L96.9629 49.5068ZM95.8242 47.8734C95.8148 47.7334 95.7868 47.5934 95.7401 47.4534C95.6841 47.3227 95.6095 47.2013 95.5068 47.0987C95.4041 46.996 95.2735 46.912 95.1241 46.8467C94.9748 46.7813 94.7974 46.7533 94.5921 46.7533C94.4054 46.7533 94.2374 46.7813 94.0881 46.8467C93.9387 46.912 93.8174 46.996 93.7147 47.108C93.612 47.2107 93.528 47.332 93.4627 47.472C93.3973 47.6027 93.3693 47.7427 93.36 47.8734H95.8242Z" fill="#170038"/>
<path d="M98.9512 50.9351H97.7564V45.9134H98.9232V46.5855C99.0912 46.2961 99.3059 46.0908 99.5765 45.9601C99.8472 45.8294 100.127 45.7734 100.407 45.7734C100.715 45.7734 100.986 45.8294 101.21 45.9321C101.434 46.0348 101.621 46.1748 101.77 46.3615C101.919 46.5482 102.031 46.7535 102.106 46.9962C102.181 47.2389 102.218 47.4909 102.218 47.7709V50.9444H101.023V47.9762C101.023 47.6682 100.949 47.4069 100.79 47.1829C100.631 46.9682 100.37 46.8562 99.9872 46.8562C99.6419 46.8562 99.3805 46.9682 99.2125 47.2015C99.0352 47.4349 98.9512 47.7149 98.9512 48.0416V50.9351Z" fill="#170038"/>
<path d="M104.785 45.9134H105.83V46.9775H104.785V49.311C104.785 49.535 104.841 49.6937 104.944 49.787C105.046 49.8897 105.205 49.9364 105.429 49.9364C105.513 49.9364 105.597 49.927 105.681 49.9177C105.765 49.9084 105.821 49.899 105.849 49.8897V50.8791C105.812 50.8884 105.737 50.9164 105.625 50.9444C105.504 50.9724 105.336 50.9911 105.121 50.9911C104.654 50.9911 104.281 50.8604 104.02 50.5991C103.749 50.3377 103.618 49.9737 103.618 49.4977V46.9682H102.694V45.9041H102.955C103.226 45.9041 103.422 45.8294 103.543 45.6801C103.665 45.5308 103.73 45.3441 103.73 45.1201V44.364H104.813V45.9134H104.785Z" fill="#170038"/>
<path d="M107.212 49.2829C107.23 49.5069 107.324 49.7123 107.492 49.8803C107.66 50.0483 107.902 50.1416 108.229 50.1416C108.481 50.1416 108.668 50.0856 108.789 49.9736C108.92 49.8616 108.976 49.7216 108.976 49.5629C108.976 49.4229 108.929 49.3109 108.836 49.2082C108.742 49.1149 108.593 49.0402 108.388 49.0029L107.641 48.8349C107.193 48.7416 106.857 48.5549 106.633 48.2935C106.409 48.0322 106.297 47.7242 106.297 47.3695C106.297 47.1455 106.344 46.9401 106.437 46.7441C106.53 46.5481 106.661 46.3801 106.829 46.2307C106.997 46.0814 107.184 45.9694 107.408 45.876C107.632 45.792 107.874 45.7454 108.136 45.7454C108.49 45.7454 108.78 45.792 109.013 45.8947C109.246 45.9974 109.442 46.1187 109.592 46.2587C109.741 46.3987 109.853 46.5574 109.928 46.7161C110.002 46.8748 110.049 47.0241 110.068 47.1454L109.06 47.4348C109.041 47.3695 109.022 47.2855 108.985 47.2015C108.948 47.1081 108.901 47.0334 108.826 46.9494C108.752 46.8748 108.658 46.8094 108.546 46.7628C108.434 46.7068 108.294 46.6881 108.126 46.6881C107.912 46.6881 107.744 46.7441 107.604 46.8561C107.473 46.9681 107.398 47.1081 107.398 47.2668C107.398 47.4068 107.445 47.5188 107.529 47.6028C107.622 47.6962 107.744 47.7522 107.902 47.7895L108.668 47.9482C109.144 48.0508 109.498 48.2375 109.741 48.5082C109.984 48.7789 110.105 49.1056 110.105 49.4696C110.105 49.6656 110.068 49.8523 109.984 50.039C109.909 50.2256 109.788 50.403 109.629 50.5523C109.47 50.711 109.274 50.8323 109.032 50.9257C108.789 51.019 108.509 51.0657 108.192 51.0657C107.828 51.0657 107.52 51.0097 107.268 50.907C107.016 50.8043 106.801 50.6737 106.642 50.5243C106.474 50.3657 106.353 50.207 106.269 50.0296C106.185 49.8523 106.138 49.6936 106.129 49.5536L107.212 49.2829Z" fill="#170038"/>
<path d="M41.3049 44.7562L44.1144 38.6238L35.1259 20.0959H40.7822L46.8306 33.3968L52.487 20.0959H57.798L44.4131 49.6378C41.9023 49.6378 40.2689 47.0523 41.3049 44.7562Z" fill="#170038"/>
<path d="M68.0373 19.4519C69.6334 19.4519 71.0615 19.7506 72.3963 20.32C73.731 20.88 74.8604 21.6547 75.8498 22.6534C76.8392 23.6428 77.5766 24.8096 78.1366 26.1537C78.6967 27.4884 78.958 29.0005 78.958 30.6059C78.958 32.202 78.6967 33.7141 78.1366 35.0582C77.5766 36.4396 76.8392 37.6064 75.8498 38.5958C74.8604 39.5852 73.731 40.3692 72.3963 40.9292C71.0615 41.4893 69.6334 41.7973 68.0373 41.7973C66.4786 41.7973 65.0598 41.4986 63.7157 40.9292C62.381 40.3692 61.2142 39.5945 60.2622 38.5958C59.3101 37.6064 58.5354 36.4396 58.0127 35.0582C57.4527 33.6768 57.1913 32.2114 57.1913 30.6059C57.1913 29.0098 57.4527 27.4977 58.0127 26.1537C58.5727 24.8189 59.3101 23.6522 60.2622 22.6534C61.2142 21.664 62.381 20.88 63.7157 20.32C65.0598 19.7039 66.4879 19.4519 68.0373 19.4519ZM68.0373 37.289C68.812 37.289 69.5494 37.1583 70.2401 36.8597C70.9308 36.561 71.5749 36.1223 72.1442 35.5622C72.7043 35.0022 73.1336 34.3115 73.4417 33.4434C73.7404 32.6221 73.9177 31.6327 73.9177 30.5499C73.9177 29.4672 73.7404 28.4778 73.4417 27.6564C73.143 26.835 72.7043 26.1443 72.1442 25.5843C71.5842 25.0243 70.9775 24.5949 70.2401 24.3335C69.5494 24.0722 68.812 23.9042 68.0373 23.9042C67.2626 23.9042 66.5252 24.0349 65.8345 24.3335C65.1438 24.5949 64.4998 25.0243 63.9771 25.5843C63.4544 26.1443 63.025 26.835 62.6797 27.6564C62.3343 28.4778 62.157 29.4299 62.157 30.5499C62.157 31.6327 62.3343 32.6221 62.6797 33.4434C63.025 34.2648 63.4544 35.0022 63.9771 35.5622C64.4998 36.1223 65.1438 36.5516 65.8345 36.8597C66.5252 37.1117 67.2626 37.289 68.0373 37.289Z" fill="#170038"/>
<path d="M82.0755 41.1346V13.9169C82.0755 11.6675 83.8863 9.85669 86.1358 9.85669H87.0878V37.1957C87.0878 39.3519 85.3144 41.1253 83.1582 41.1253H82.0755V41.1346Z" fill="#170038"/>
<path d="M101.079 19.4519C102.675 19.4519 104.104 19.7506 105.438 20.32C106.773 20.8893 107.902 21.6547 108.892 22.6534C109.881 23.6428 110.619 24.8096 111.179 26.1537C111.739 27.4884 112 29.0005 112 30.6059C112 32.202 111.739 33.7141 111.179 35.0582C110.619 36.4396 109.881 37.6064 108.892 38.5958C107.902 39.5852 106.773 40.3692 105.438 40.9292C104.104 41.4893 102.675 41.7973 101.079 41.7973C99.5206 41.7973 98.1018 41.4986 96.7578 40.9292C95.423 40.3692 94.2563 39.5945 93.3042 38.5958C92.3522 37.6064 91.5774 36.4396 91.0547 35.0582C90.4947 33.6768 90.2334 32.2114 90.2334 30.6059C90.2334 29.0098 90.4947 27.4977 91.0547 26.1537C91.6148 24.8189 92.3522 23.6522 93.3042 22.6534C94.2563 21.664 95.423 20.88 96.7578 20.32C98.1018 19.7039 99.5299 19.4519 101.079 19.4519ZM101.079 37.289C101.854 37.289 102.591 37.1583 103.282 36.8597C103.973 36.561 104.617 36.1223 105.186 35.5622C105.756 35.0022 106.176 34.3115 106.484 33.4434C106.782 32.6221 106.96 31.6327 106.96 30.5499C106.96 29.4672 106.782 28.4778 106.484 27.6564C106.185 26.835 105.746 26.1443 105.186 25.5843C104.626 25.0243 104.02 24.5949 103.282 24.3335C102.591 24.0722 101.854 23.9042 101.079 23.9042C100.305 23.9042 99.5673 24.0349 98.8766 24.3335C98.1859 24.5949 97.5418 25.0243 97.0191 25.5843C96.4964 26.1443 96.0671 26.835 95.7217 27.6564C95.3763 28.4778 95.199 29.4299 95.199 30.5499C95.199 31.6327 95.3763 32.6221 95.7217 33.4434C96.0671 34.2648 96.4964 35.0022 97.0191 35.5622C97.5418 36.1223 98.1859 36.5516 98.8766 36.8597C99.5673 37.1117 100.305 37.289 101.079 37.289Z" fill="#170038"/>
<path d="M16.3554 30.6712C13.8259 30.6338 11.8284 28.515 11.8284 25.9949V16.661C11.8284 15.9703 11.4364 15.3356 10.8204 15.0182L2.5505 10.7713C0.310365 9.61387 -0.651028 6.8697 0.469042 4.60156C1.60778 2.29608 4.41729 1.37202 6.69476 2.54809L19.5196 9.13784C20.4436 9.61387 21.0317 10.5659 21.0317 11.6113V26.0696C21.0317 28.6364 18.9315 30.7085 16.3554 30.6712Z" fill="#170038"/>
<path d="M28.1254 11.1074C31.1926 11.1074 33.6791 8.62089 33.6791 5.55368C33.6791 2.48647 31.1926 0 28.1254 0C25.0582 0 22.5717 2.48647 22.5717 5.55368C22.5717 8.62089 25.0582 11.1074 28.1254 11.1074Z" fill="#170038"/>
</svg>
