<svg width="140" height="24" viewBox="0 0 140 24" fill="none" xmlns="http://www.w3.org/2000/svg">
<path d="M1.59 17.09C1.33 17.09 1.11 17 0.93 16.82C0.75 16.64 0.66 16.42 0.66 16.16C0.66 15.9 0.75 15.68 0.93 15.5C1.11 15.32 1.33 15.23 1.59 15.23C1.84 15.23 2.05 15.32 2.22 15.5C2.4 15.68 2.49 15.9 2.49 16.16C2.49 16.42 2.4 16.64 2.22 16.82C2.05 17 1.84 17.09 1.59 17.09ZM4.73941 17.09C4.47941 17.09 4.25941 17 4.07941 16.82C3.89941 16.64 3.80941 16.42 3.80941 16.16C3.80941 15.9 3.89941 15.68 4.07941 15.5C4.25941 15.32 4.47941 15.23 4.73941 15.23C4.98941 15.23 5.19941 15.32 5.36941 15.5C5.54941 15.68 5.63941 15.9 5.63941 16.16C5.63941 16.42 5.54941 16.64 5.36941 16.82C5.19941 17 4.98941 17.09 4.73941 17.09ZM17.6329 14.675H13.0729L12.2329 17H10.7929L14.5729 6.605H16.1479L19.9129 17H18.4729L17.6329 14.675ZM17.2429 13.565L15.3529 8.285L13.4629 13.565H17.2429ZM25.5653 8.63C26.5653 8.63 27.3753 8.935 27.9953 9.545C28.6153 10.145 28.9253 11.015 28.9253 12.155V17H27.5753V12.35C27.5753 11.53 27.3703 10.905 26.9603 10.475C26.5503 10.035 25.9903 9.815 25.2803 9.815C24.5603 9.815 23.9853 10.04 23.5553 10.49C23.1353 10.94 22.9253 11.595 22.9253 12.455V17H21.5603V8.78H22.9253V9.95C23.1953 9.53 23.5603 9.205 24.0203 8.975C24.4903 8.745 25.0053 8.63 25.5653 8.63ZM30.645 12.86C30.645 12.02 30.815 11.285 31.155 10.655C31.495 10.015 31.96 9.52 32.55 9.17C33.15 8.82 33.82 8.645 34.56 8.645C35.2 8.645 35.795 8.795 36.345 9.095C36.895 9.385 37.315 9.77 37.605 10.25V5.9H38.985V17H37.605V15.455C37.335 15.945 36.935 16.35 36.405 16.67C35.875 16.98 35.255 17.135 34.545 17.135C33.815 17.135 33.15 16.955 32.55 16.595C31.96 16.235 31.495 15.73 31.155 15.08C30.815 14.43 30.645 13.69 30.645 12.86ZM37.605 12.875C37.605 12.255 37.48 11.715 37.23 11.255C36.98 10.795 36.64 10.445 36.21 10.205C35.79 9.955 35.325 9.83 34.815 9.83C34.305 9.83 33.84 9.95 33.42 10.19C33 10.43 32.665 10.78 32.415 11.24C32.165 11.7 32.04 12.24 32.04 12.86C32.04 13.49 32.165 14.04 32.415 14.51C32.665 14.97 33 15.325 33.42 15.575C33.84 15.815 34.305 15.935 34.815 15.935C35.325 15.935 35.79 15.815 36.21 15.575C36.64 15.325 36.98 14.97 37.23 14.51C37.48 14.04 37.605 13.495 37.605 12.875ZM55.1757 8.63C55.8157 8.63 56.3857 8.765 56.8857 9.035C57.3857 9.295 57.7807 9.69 58.0707 10.22C58.3607 10.75 58.5057 11.395 58.5057 12.155V17H57.1557V12.35C57.1557 11.53 56.9507 10.905 56.5407 10.475C56.1407 10.035 55.5957 9.815 54.9057 9.815C54.1957 9.815 53.6307 10.045 53.2107 10.505C52.7907 10.955 52.5807 11.61 52.5807 12.47V17H51.2307V12.35C51.2307 11.53 51.0257 10.905 50.6157 10.475C50.2157 10.035 49.6707 9.815 48.9807 9.815C48.2707 9.815 47.7057 10.045 47.2857 10.505C46.8657 10.955 46.6557 11.61 46.6557 12.47V17H45.2907V8.78H46.6557V9.965C46.9257 9.535 47.2857 9.205 47.7357 8.975C48.1957 8.745 48.7007 8.63 49.2507 8.63C49.9407 8.63 50.5507 8.785 51.0807 9.095C51.6107 9.405 52.0057 9.86 52.2657 10.46C52.4957 9.88 52.8757 9.43 53.4057 9.11C53.9357 8.79 54.5257 8.63 55.1757 8.63ZM60.2348 12.86C60.2348 12.02 60.4048 11.285 60.7448 10.655C61.0848 10.015 61.5498 9.52 62.1398 9.17C62.7398 8.82 63.4048 8.645 64.1348 8.645C64.8548 8.645 65.4798 8.8 66.0098 9.11C66.5398 9.42 66.9348 9.81 67.1948 10.28V8.78H68.5748V17H67.1948V15.47C66.9248 15.95 66.5198 16.35 65.9798 16.67C65.4498 16.98 64.8298 17.135 64.1198 17.135C63.3898 17.135 62.7298 16.955 62.1398 16.595C61.5498 16.235 61.0848 15.73 60.7448 15.08C60.4048 14.43 60.2348 13.69 60.2348 12.86ZM67.1948 12.875C67.1948 12.255 67.0698 11.715 66.8198 11.255C66.5698 10.795 66.2298 10.445 65.7998 10.205C65.3798 9.955 64.9148 9.83 64.4048 9.83C63.8948 9.83 63.4298 9.95 63.0098 10.19C62.5898 10.43 62.2548 10.78 62.0048 11.24C61.7548 11.7 61.6298 12.24 61.6298 12.86C61.6298 13.49 61.7548 14.04 62.0048 14.51C62.2548 14.97 62.5898 15.325 63.0098 15.575C63.4298 15.815 63.8948 15.935 64.4048 15.935C64.9148 15.935 65.3798 15.815 65.7998 15.575C66.2298 15.325 66.5698 14.97 66.8198 14.51C67.0698 14.04 67.1948 13.495 67.1948 12.875ZM74.8866 8.63C75.8866 8.63 76.6966 8.935 77.3166 9.545C77.9366 10.145 78.2466 11.015 78.2466 12.155V17H76.8966V12.35C76.8966 11.53 76.6916 10.905 76.2816 10.475C75.8716 10.035 75.3116 9.815 74.6016 9.815C73.8816 9.815 73.3066 10.04 72.8766 10.49C72.4566 10.94 72.2466 11.595 72.2466 12.455V17H70.8816V8.78H72.2466V9.95C72.5166 9.53 72.8816 9.205 73.3416 8.975C73.8116 8.745 74.3266 8.63 74.8866 8.63ZM87.5563 8.78L82.6063 20.87H81.1963L82.8163 16.91L79.5013 8.78H81.0163L83.5963 15.44L86.1463 8.78H87.5563ZM96.5125 17.135C95.7425 17.135 95.0425 16.96 94.4125 16.61C93.7925 16.26 93.3025 15.765 92.9425 15.125C92.5925 14.475 92.4175 13.725 92.4175 12.875C92.4175 12.035 92.5975 11.295 92.9575 10.655C93.3275 10.005 93.8275 9.51 94.4575 9.17C95.0875 8.82 95.7925 8.645 96.5725 8.645C97.3525 8.645 98.0575 8.82 98.6875 9.17C99.3175 9.51 99.8125 10 100.172 10.64C100.542 11.28 100.727 12.025 100.727 12.875C100.727 13.725 100.537 14.475 100.157 15.125C99.7875 15.765 99.2825 16.26 98.6425 16.61C98.0025 16.96 97.2925 17.135 96.5125 17.135ZM96.5125 15.935C97.0025 15.935 97.4625 15.82 97.8925 15.59C98.3225 15.36 98.6675 15.015 98.9275 14.555C99.1975 14.095 99.3325 13.535 99.3325 12.875C99.3325 12.215 99.2025 11.655 98.9425 11.195C98.6825 10.735 98.3425 10.395 97.9225 10.175C97.5025 9.945 97.0475 9.83 96.5575 9.83C96.0575 9.83 95.5975 9.945 95.1775 10.175C94.7675 10.395 94.4375 10.735 94.1875 11.195C93.9375 11.655 93.8125 12.215 93.8125 12.875C93.8125 13.545 93.9325 14.11 94.1725 14.57C94.4225 15.03 94.7525 15.375 95.1625 15.605C95.5725 15.825 96.0225 15.935 96.5125 15.935ZM104.187 9.905V14.75C104.187 15.15 104.272 15.435 104.442 15.605C104.612 15.765 104.907 15.845 105.327 15.845H106.332V17H105.102C104.342 17 103.772 16.825 103.392 16.475C103.012 16.125 102.822 15.55 102.822 14.75V9.905H101.757V8.78H102.822V6.71H104.187V8.78H106.332V9.905H104.187ZM112.066 8.63C112.686 8.63 113.246 8.765 113.746 9.035C114.246 9.295 114.636 9.69 114.916 10.22C115.206 10.75 115.351 11.395 115.351 12.155V17H114.001V12.35C114.001 11.53 113.796 10.905 113.386 10.475C112.976 10.035 112.416 9.815 111.706 9.815C110.986 9.815 110.411 10.04 109.981 10.49C109.561 10.94 109.351 11.595 109.351 12.455V17H107.986V5.9H109.351V9.95C109.621 9.53 109.991 9.205 110.461 8.975C110.941 8.745 111.476 8.63 112.066 8.63ZM125.081 12.575C125.081 12.835 125.066 13.11 125.036 13.4H118.466C118.516 14.21 118.791 14.845 119.291 15.305C119.801 15.755 120.416 15.98 121.136 15.98C121.726 15.98 122.216 15.845 122.606 15.575C123.006 15.295 123.286 14.925 123.446 14.465H124.916C124.696 15.255 124.256 15.9 123.596 16.4C122.936 16.89 122.116 17.135 121.136 17.135C120.356 17.135 119.656 16.96 119.036 16.61C118.426 16.26 117.946 15.765 117.596 15.125C117.246 14.475 117.071 13.725 117.071 12.875C117.071 12.025 117.241 11.28 117.581 10.64C117.921 10 118.396 9.51 119.006 9.17C119.626 8.82 120.336 8.645 121.136 8.645C121.916 8.645 122.606 8.815 123.206 9.155C123.806 9.495 124.266 9.965 124.586 10.565C124.916 11.155 125.081 11.825 125.081 12.575ZM123.671 12.29C123.671 11.77 123.556 11.325 123.326 10.955C123.096 10.575 122.781 10.29 122.381 10.1C121.991 9.9 121.556 9.8 121.076 9.8C120.386 9.8 119.796 10.02 119.306 10.46C118.826 10.9 118.551 11.51 118.481 12.29H123.671ZM128.248 10.115C128.488 9.645 128.828 9.28 129.268 9.02C129.718 8.76 130.263 8.63 130.903 8.63V10.04H130.543C129.013 10.04 128.248 10.87 128.248 12.53V17H126.883V8.78H128.248V10.115ZM135.388 17.135C134.758 17.135 134.193 17.03 133.693 16.82C133.193 16.6 132.798 16.3 132.508 15.92C132.218 15.53 132.058 15.085 132.028 14.585H133.438C133.478 14.995 133.668 15.33 134.008 15.59C134.358 15.85 134.813 15.98 135.373 15.98C135.893 15.98 136.303 15.865 136.603 15.635C136.903 15.405 137.053 15.115 137.053 14.765C137.053 14.405 136.893 14.14 136.573 13.97C136.253 13.79 135.758 13.615 135.088 13.445C134.478 13.285 133.978 13.125 133.588 12.965C133.208 12.795 132.878 12.55 132.598 12.23C132.328 11.9 132.193 11.47 132.193 10.94C132.193 10.52 132.318 10.135 132.568 9.785C132.818 9.435 133.173 9.16 133.633 8.96C134.093 8.75 134.618 8.645 135.208 8.645C136.118 8.645 136.853 8.875 137.413 9.335C137.973 9.795 138.273 10.425 138.313 11.225H136.948C136.918 10.795 136.743 10.45 136.423 10.19C136.113 9.93 135.693 9.8 135.163 9.8C134.673 9.8 134.283 9.905 133.993 10.115C133.703 10.325 133.558 10.6 133.558 10.94C133.558 11.21 133.643 11.435 133.813 11.615C133.993 11.785 134.213 11.925 134.473 12.035C134.743 12.135 135.113 12.25 135.583 12.38C136.173 12.54 136.653 12.7 137.023 12.86C137.393 13.01 137.708 13.24 137.968 13.55C138.238 13.86 138.378 14.265 138.388 14.765C138.388 15.215 138.263 15.62 138.013 15.98C137.763 16.34 137.408 16.625 136.948 16.835C136.498 17.035 135.978 17.135 135.388 17.135Z" fill="#170038"/>
</svg>
