<svg width="197" height="26" viewBox="0 0 197 26" fill="none" xmlns="http://www.w3.org/2000/svg">
<g clip-path="url(#clip0_401_804)">
<path d="M194.07 5.92321C192.651 4.46578 190.109 2.72777 186.079 2.72777H178.034C177.427 2.73556 176.964 3.26554 176.964 3.97477L176.971 14.0053C176.964 14.473 176.774 14.7302 176.44 14.8627C176.053 15.0107 175.575 14.8627 175.264 14.4886C175.264 14.4886 166.118 3.67861 166.126 3.67861C165.337 2.78233 164.282 2.57969 163.644 2.84468C163.166 3.04731 162.908 3.49935 162.931 4.13065L162.923 16.3824C162.923 16.889 162.65 17.1384 162.392 17.2008C162.02 17.2865 161.633 17.0527 161.428 16.6163C161.428 16.6163 154.431 3.82669 154.438 3.83448C153.968 3.03952 153.269 2.59527 152.533 2.61866C151.835 2.64204 151.213 3.07849 150.818 3.8189C150.818 3.8189 143.593 18.6348 143.593 18.627C143.229 19.3908 142.47 19.9676 141.46 19.991H141.195C140.777 19.991 140.382 19.8195 140.087 19.5155C139.791 19.2116 139.624 18.8063 139.624 18.3776V3.85007C139.624 3.55391 139.51 3.26554 139.297 3.05511C139.092 2.84468 138.811 2.71998 138.523 2.71998H120.043C119.367 2.71218 118.692 2.82909 118.388 3.00055C118.198 3.10966 117.477 3.42141 116.491 3.07069C115.952 2.87585 114.707 2.68101 112.848 2.72777H103.445C103.156 2.72777 102.875 2.84468 102.67 3.0629C102.465 3.28113 102.344 3.5617 102.344 3.85786C102.344 3.85786 102.344 4.71518 102.344 4.70739C102.359 5.21398 102.147 5.61146 101.752 5.79072C101.304 5.99336 100.712 5.88424 100.34 5.51794L100.325 5.51014L100.318 5.49455C100.295 5.46338 97.7903 2.33029 92.6447 2.29911C88.0986 2.26794 85.8901 4.8165 85.8673 4.83988L85.8521 4.86326L85.8293 4.87885C85.1311 5.40103 84.2204 5.45559 83.6132 4.85547L83.4235 4.67621C83.4083 4.65283 82.3078 2.6888 76.8965 2.72777H67.5008C67.2124 2.72777 66.9316 2.84468 66.7266 3.0629C66.5141 3.28113 66.4003 3.5617 66.4003 3.85786V11.3165C66.4003 11.6672 66.2106 11.9712 65.869 12.1738C65.3757 12.4622 64.6927 12.47 64.2525 12.1972C64.2373 12.1894 62.7194 11.4256 60.6854 11.4256L56.0331 11.41C54.2647 11.41 53.0049 11.0359 52.2763 10.2877C51.7147 9.71098 51.6312 9.05631 51.6312 8.72117C51.6312 8.08988 51.9575 5.96218 56.1241 5.96218H62.7801C63.3873 5.96218 63.8806 5.45559 63.8806 4.83209V3.83448C63.8806 3.1876 63.2658 2.70439 62.7422 2.70439H55.6688C52.9821 2.70439 50.728 3.55391 49.3088 5.00355C48.2918 6.04791 47.7529 7.40403 47.7529 8.92381C47.7529 10.3189 48.2083 11.5035 49.1115 12.431C50.5003 13.8573 52.9366 14.6444 55.9648 14.6444H59.2965C61.0952 14.6444 62.3627 15.0107 63.0609 15.7278C63.5466 16.2266 63.6453 16.7799 63.6453 17.154C63.6453 17.8477 63.4252 18.4166 63.0002 18.8531C62.302 19.5701 61.0193 19.9364 59.2055 19.9364H48.8079C48.5195 19.9364 48.2387 20.0533 48.0338 20.2715C47.8288 20.482 47.7074 20.7703 47.7074 21.0665V22.0563C47.7074 22.3525 47.8213 22.6408 48.0338 22.8513C48.2387 23.0695 48.5195 23.1864 48.8079 23.1864H59.6836C63.4404 23.1864 64.2601 22.4694 64.2601 22.4694L64.2752 22.4538L64.298 22.4382C64.6851 22.181 65.2163 22.0797 65.6869 22.1888C66.0132 22.2589 66.2637 22.4226 66.3927 22.633C66.5521 22.898 67.1441 23.1942 67.5083 23.1864H69.087C69.6941 23.1864 70.1874 22.6798 70.1874 22.0563V16.25C70.1874 15.3615 70.8933 14.6366 71.7585 14.6366H77.2381C77.9818 14.6366 79.0595 14.6055 79.6515 14.5119C80.3877 14.4028 81.9208 14.169 82.3002 15.5797C82.3761 15.9148 84.19 23.6852 92.6675 23.6852C97.9725 23.6852 100.31 20.4664 100.325 20.4508C100.576 20.0299 101.259 19.9052 101.744 20.0455C102.139 20.1624 102.367 20.4508 102.367 20.8171V22.0485C102.367 22.3447 102.481 22.633 102.693 22.8435C102.898 23.0539 103.179 23.1786 103.467 23.1786H105.046C105.653 23.1786 106.146 22.672 106.146 22.0485V16.2422C106.146 15.3537 106.852 14.6288 107.717 14.6288H111.307C112.134 14.6288 113.098 15.2056 113.508 15.9382L116.946 22.1109C117.265 22.6876 118.085 23.1786 118.737 23.1786H120.46C120.695 23.1786 120.9 23.0461 121.014 22.8201C121.158 22.5317 121.12 22.1732 120.9 21.8381C120.9 21.8381 117.652 15.8836 117.66 15.8836C117.219 15.0887 117.675 14.2314 118.327 13.7404C118.327 13.7404 118.343 13.7248 118.35 13.7248L118.373 13.717C118.487 13.6624 121.174 12.3375 121.128 8.61206C121.12 7.77033 121.067 7.52093 121.067 7.52873C120.953 7.10007 121.014 6.69479 121.242 6.38304C121.47 6.07129 121.834 5.89983 122.266 5.89983H124.354C124.771 5.89983 125.166 6.07129 125.462 6.37525C125.758 6.67921 125.925 7.08448 125.925 7.51314V22.0485C125.925 22.3447 126.038 22.633 126.251 22.8435C126.456 23.0539 126.737 23.1786 127.025 23.1786H128.604C129.211 23.1786 129.704 22.672 129.704 22.0485V7.54432C129.704 6.65583 130.41 5.93101 131.268 5.93101H134.318C134.736 5.93101 135.131 6.10247 135.427 6.40642C135.723 6.71038 135.89 7.11566 135.89 7.54432V22.0797C135.89 22.3758 136.003 22.6642 136.216 22.8746C136.421 23.0851 136.702 23.2098 136.99 23.2098H151.41C152.017 23.2098 152.51 22.7032 152.51 22.0797V21.1211C152.51 20.8249 152.397 20.5365 152.184 20.3261C151.979 20.1157 151.698 19.991 151.41 19.991C151.41 19.991 148.708 19.991 148.701 19.991C148.025 19.9598 147.729 19.5077 147.737 19.0791C147.752 18.5335 148.238 17.949 149.11 17.949L155.865 17.9412C156.806 17.9412 157.573 18.3932 158.074 19.2895C158.074 19.2895 159.69 22.1576 159.698 22.1732C159.986 22.7577 160.912 23.1864 161.557 23.1864L165.132 23.1942C165.739 23.1942 166.232 22.6876 166.232 22.0641V11.9166C166.232 11.5191 166.43 11.1996 166.764 11.0749C167.166 10.919 167.651 11.0749 167.978 11.4568L176.85 21.9862C177.685 22.9526 179.279 23.2098 180.091 23.2098L186.079 23.2176C193.167 23.2176 197 17.9646 197 13.0311C197 10.428 195.93 7.84048 194.07 5.92321ZM80.6154 10.3033C79.9095 11.0281 78.6345 11.3944 76.8206 11.3944H71.7281C71.3107 11.3944 70.916 11.2308 70.62 10.919C70.324 10.6151 70.1571 10.2098 70.1571 9.78113V7.52093C70.1571 6.63244 70.8629 5.90762 71.7281 5.90762H76.851C78.6725 5.90762 79.902 6.25834 80.6002 6.97537C81.0252 7.41182 81.2453 7.98856 81.2453 8.69C81.2529 9.32909 81.0404 9.86686 80.6154 10.3033ZM97.5247 18.4634C96.2725 19.7493 94.5421 20.4664 92.6523 20.4664C90.7701 20.4664 89.0397 19.7571 87.7874 18.4634C86.4517 17.0917 85.7155 15.1588 85.7155 13.0155C85.7155 8.68221 88.6299 5.53352 92.6523 5.53352C94.5041 5.53352 96.2269 6.25055 97.4868 7.54432C98.8377 8.93161 99.5815 10.88 99.5815 13.0155C99.5891 15.1588 98.8529 17.0995 97.5247 18.4634ZM116.582 10.3189C115.876 11.0437 114.601 11.41 112.787 11.41H107.695C107.277 11.41 106.883 11.2386 106.587 10.9346C106.291 10.6306 106.124 10.2254 106.124 9.79671V7.53652C106.124 6.64803 106.829 5.92321 107.695 5.92321H112.825C114.647 5.92321 115.876 6.27393 116.574 6.99096C116.999 7.42741 117.219 8.00415 117.219 8.70559C117.219 9.34467 117.007 9.88244 116.582 10.3189ZM155.364 14.2314C155.182 14.5353 154.81 14.6288 154.37 14.6288H150.993C150.552 14.6288 150.203 14.5353 150.014 14.2314C149.831 13.9274 149.831 13.5377 150.029 13.1324L151.752 9.51614C151.941 9.11866 152.283 8.87705 152.662 8.87705C153.042 8.87705 153.383 9.11866 153.581 9.51614L155.349 13.1402C155.546 13.5377 155.554 13.9274 155.364 14.2314ZM191.27 17.91C189.98 19.235 188.128 19.9676 186.071 19.9676H182.398C181.404 19.9676 180.721 19.3051 180.743 18.3621V7.51314C180.743 6.62465 181.533 5.90762 182.398 5.90762H186.071C188.105 5.90762 189.942 6.64024 191.232 7.96518C192.484 9.25115 193.145 10.9736 193.145 12.9532C193.152 14.9328 192.499 16.6474 191.27 17.91Z" fill="#170038"/>
<path d="M40.6113 12.8753C38.0916 13.3741 33.3709 13.6468 29.3181 13.3819C20.8179 12.8285 13.699 10.4826 11.5967 7.54432C11.0806 6.8195 10.8985 6.08689 11.073 5.36986C11.6574 2.93821 16.0897 0.927419 22.6394 0.109073C24.4002 -0.0701832 28.0203 -0.148121 29.0753 0.865068C29.265 1.05212 29.3561 1.25476 29.3485 1.49636C29.3105 2.61087 27.861 3.03953 26.3203 3.49157C24.6278 3.99037 22.8747 4.50476 22.6318 6.05571C22.5407 6.63245 22.7153 7.2014 23.1403 7.75476C24.5747 9.59408 28.8021 10.997 33.9174 11.3243C36.0804 11.4646 37.8942 11.4022 39.9813 11.1061C40.2166 11.0515 40.4291 11.0359 40.6416 11.0515C41.1198 11.0827 41.5296 11.2697 41.7269 11.5425C41.8332 11.6906 41.8711 11.8543 41.8256 12.0257C41.7269 12.4232 41.5068 12.696 40.6113 12.8753Z" fill="#170038"/>
<path d="M1.22873 13.1247C3.74843 12.6259 8.46909 12.3531 12.5219 12.6181C21.0221 13.1714 28.141 15.5174 30.2357 18.4556C30.7518 19.1804 30.9339 19.913 30.7594 20.6301C30.175 23.0617 25.7427 25.0725 19.193 25.8909C17.4323 26.0701 13.8121 26.148 12.7571 25.1349C12.5674 24.9478 12.4763 24.7452 12.4839 24.5036C12.5219 23.3813 13.9715 22.9604 15.5121 22.5084C17.2046 22.0096 18.9577 21.4952 19.2006 19.9442C19.2917 19.3675 19.1171 18.7985 18.6921 18.2452C17.2577 16.4058 13.0304 15.003 7.91505 14.6756C5.75205 14.5353 3.93817 14.5977 1.85106 14.8939C1.61579 14.9484 1.40328 14.964 1.19078 14.9484C0.712641 14.9172 0.302809 14.7302 0.105483 14.4574C-0.000769624 14.3093 -0.038717 14.1456 0.00681985 13.9742C0.113073 13.5767 0.340757 13.2961 1.22873 13.1247Z" fill="#170038"/>
</g>
<defs>
<clipPath id="clip0_401_804">
<rect width="197" height="26" fill="white"/>
</clipPath>
</defs>
</svg>
