<svg width="361" height="308" viewBox="0 0 361 308" fill="none" xmlns="http://www.w3.org/2000/svg">
<path fill-rule="evenodd" clip-rule="evenodd" d="M124 15L124 295L63 295L63 15L124 15Z" fill="url(#paint0_linear_530_2153)"/>
<path fill-rule="evenodd" clip-rule="evenodd" d="M270 245L270 295L209 295L209 245L270 245Z" fill="url(#paint1_linear_530_2153)"/>
<path fill-rule="evenodd" clip-rule="evenodd" d="M195 40L195 295L134 295L134 40L195 40Z" fill="url(#paint2_linear_530_2153)"/>
<path fill-rule="evenodd" clip-rule="evenodd" d="M341 229L341 295L280 295L280 229L341 229Z" fill="url(#paint3_linear_530_2153)"/>
<path d="M27.992 295.096C27.992 293.261 28.2907 291.832 28.888 290.808C29.4853 289.773 30.5307 289.256 32.024 289.256C33.5067 289.256 34.5467 289.773 35.144 290.808C35.7413 291.832 36.04 293.261 36.04 295.096C36.04 296.963 35.7413 298.413 35.144 299.448C34.5467 300.483 33.5067 301 32.024 301C30.5307 301 29.4853 300.483 28.888 299.448C28.2907 298.413 27.992 296.963 27.992 295.096ZM34.6 295.096C34.6 294.168 34.536 293.384 34.408 292.744C34.2907 292.093 34.04 291.571 33.656 291.176C33.2827 290.781 32.7387 290.584 32.024 290.584C31.2987 290.584 30.744 290.781 30.36 291.176C29.9867 291.571 29.736 292.093 29.608 292.744C29.4907 293.384 29.432 294.168 29.432 295.096C29.432 296.056 29.4907 296.861 29.608 297.512C29.736 298.163 29.9867 298.685 30.36 299.08C30.744 299.475 31.2987 299.672 32.024 299.672C32.7387 299.672 33.2827 299.475 33.656 299.08C34.04 298.685 34.2907 298.163 34.408 297.512C34.536 296.861 34.6 296.056 34.6 295.096Z" fill="#170038"/>
<path d="M0.608 8.76V7.432H3.616V19H2.144V8.76H0.608ZM6.117 13.096C6.117 11.2613 6.41567 9.832 7.013 8.808C7.61033 7.77333 8.65567 7.256 10.149 7.256C11.6317 7.256 12.6717 7.77333 13.269 8.808C13.8663 9.832 14.165 11.2613 14.165 13.096C14.165 14.9627 13.8663 16.4133 13.269 17.448C12.6717 18.4827 11.6317 19 10.149 19C8.65567 19 7.61033 18.4827 7.013 17.448C6.41567 16.4133 6.117 14.9627 6.117 13.096ZM12.725 13.096C12.725 12.168 12.661 11.384 12.533 10.744C12.4157 10.0933 12.165 9.57067 11.781 9.176C11.4077 8.78133 10.8637 8.584 10.149 8.584C9.42367 8.584 8.869 8.78133 8.485 9.176C8.11167 9.57067 7.861 10.0933 7.733 10.744C7.61567 11.384 7.557 12.168 7.557 13.096C7.557 14.056 7.61567 14.8613 7.733 15.512C7.861 16.1627 8.11167 16.6853 8.485 17.08C8.869 17.4747 9.42367 17.672 10.149 17.672C10.8637 17.672 11.4077 17.4747 11.781 17.08C12.165 16.6853 12.4157 16.1627 12.533 15.512C12.661 14.8613 12.725 14.056 12.725 13.096ZM16.1639 13.096C16.1639 11.2613 16.4625 9.832 17.0599 8.808C17.6572 7.77333 18.7025 7.256 20.1959 7.256C21.6785 7.256 22.7185 7.77333 23.3159 8.808C23.9132 9.832 24.2119 11.2613 24.2119 13.096C24.2119 14.9627 23.9132 16.4133 23.3159 17.448C22.7185 18.4827 21.6785 19 20.1959 19C18.7025 19 17.6572 18.4827 17.0599 17.448C16.4625 16.4133 16.1639 14.9627 16.1639 13.096ZM22.7719 13.096C22.7719 12.168 22.7079 11.384 22.5799 10.744C22.4625 10.0933 22.2119 9.57067 21.8279 9.176C21.4545 8.78133 20.9105 8.584 20.1959 8.584C19.4705 8.584 18.9159 8.78133 18.5319 9.176C18.1585 9.57067 17.9079 10.0933 17.7799 10.744C17.6625 11.384 17.6039 12.168 17.6039 13.096C17.6039 14.056 17.6625 14.8613 17.7799 15.512C17.9079 16.1627 18.1585 16.6853 18.5319 17.08C18.9159 17.4747 19.4705 17.672 20.1959 17.672C20.9105 17.672 21.4545 17.4747 21.8279 17.08C22.2119 16.6853 22.4625 16.1627 22.5799 15.512C22.7079 14.8613 22.7719 14.056 22.7719 13.096ZM25.8908 10.04C25.8908 9.31467 26.1094 8.73867 26.5468 8.312C26.9841 7.87467 27.5441 7.656 28.2268 7.656C28.9094 7.656 29.4694 7.87467 29.9068 8.312C30.3441 8.73867 30.5628 9.31467 30.5628 10.04C30.5628 10.776 30.3441 11.3627 29.9068 11.8C29.4694 12.2267 28.9094 12.44 28.2268 12.44C27.5441 12.44 26.9841 12.2267 26.5468 11.8C26.1094 11.3627 25.8908 10.776 25.8908 10.04ZM35.2348 7.832L28.7548 19H27.3148L33.7948 7.832H35.2348ZM28.2268 8.552C27.8641 8.552 27.5761 8.68 27.3628 8.936C27.1601 9.18133 27.0588 9.54933 27.0588 10.04C27.0588 10.5307 27.1601 10.904 27.3628 11.16C27.5761 11.416 27.8641 11.544 28.2268 11.544C28.5894 11.544 28.8774 11.416 29.0908 11.16C29.3041 10.8933 29.4108 10.52 29.4108 10.04C29.4108 9.54933 29.3041 9.18133 29.0908 8.936C28.8774 8.68 28.5894 8.552 28.2268 8.552ZM32.0188 16.792C32.0188 16.056 32.2374 15.4747 32.6748 15.048C33.1121 14.6107 33.6721 14.392 34.3548 14.392C35.0374 14.392 35.5921 14.6107 36.0188 15.048C36.4561 15.4747 36.6748 16.056 36.6748 16.792C36.6748 17.5173 36.4561 18.0987 36.0188 18.536C35.5921 18.9733 35.0374 19.192 34.3548 19.192C33.6721 19.192 33.1121 18.9787 32.6748 18.552C32.2374 18.1147 32.0188 17.528 32.0188 16.792ZM34.3388 15.304C33.9761 15.304 33.6881 15.432 33.4748 15.688C33.2614 15.9333 33.1548 16.3013 33.1548 16.792C33.1548 17.272 33.2614 17.64 33.4748 17.896C33.6881 18.1413 33.9761 18.264 34.3388 18.264C34.7014 18.264 34.9894 18.1413 35.2028 17.896C35.4161 17.64 35.5228 17.272 35.5228 16.792C35.5228 16.3013 35.4161 15.9333 35.2028 15.688C34.9894 15.432 34.7014 15.304 34.3388 15.304Z" fill="#170038"/>
<line x1="48" y1="294.5" x2="361" y2="294.5" stroke="black"/>
<line x1="49.5" y1="4" x2="49.5" y2="295" stroke="black"/>
<defs>
<linearGradient id="paint0_linear_530_2153" x1="123.999" y1="295" x2="123.999" y2="-18.6" gradientUnits="userSpaceOnUse">
<stop stop-color="#7600FF"/>
<stop offset="1" stop-color="#47009C"/>
</linearGradient>
<linearGradient id="paint1_linear_530_2153" x1="269.999" y1="295" x2="269.999" y2="239" gradientUnits="userSpaceOnUse">
<stop stop-color="#00BF8D"/>
<stop offset="1" stop-color="#14EFB5"/>
</linearGradient>
<linearGradient id="paint2_linear_530_2153" x1="194.999" y1="295" x2="194.999" y2="9.39999" gradientUnits="userSpaceOnUse">
<stop stop-color="#7600FF"/>
<stop offset="1" stop-color="#47009C"/>
</linearGradient>
<linearGradient id="paint3_linear_530_2153" x1="340.999" y1="295" x2="340.999" y2="221.08" gradientUnits="userSpaceOnUse">
<stop stop-color="#00BF8D"/>
<stop offset="1" stop-color="#14EFB5"/>
</linearGradient>
</defs>
</svg>
