<svg width="27" height="16" viewBox="0 0 27 16" fill="none" xmlns="http://www.w3.org/2000/svg">
<path d="M13.1666 0C7.47678 0 2.531 3.02834 0.208584 7.48816L0 7.89961L0.208584 8.30188C2.52933 12.7656 7.47469 15.7994 13.1666 15.7994C18.8585 15.7994 23.8037 12.7654 26.1246 8.30188L26.3331 7.89961L26.1246 7.48816C23.8024 3.02813 18.8564 0 13.1666 0ZM10.6548 1.98422C8.37916 2.96998 6.78277 5.25174 6.78277 7.90024C6.78277 10.5487 8.37921 12.8303 10.6548 13.8163C6.86846 13.1183 3.72466 10.878 2.00413 7.90024C3.72445 4.9217 6.86851 2.6822 10.6548 1.98422ZM15.6783 1.98422C19.4647 2.68183 22.6085 4.92154 24.329 7.90024C22.6087 10.8777 19.4646 13.1181 15.6783 13.8163C17.954 12.8305 19.5504 10.5487 19.5504 7.90024C19.5504 5.25211 17.9539 2.97019 15.6783 1.98422ZM13.1666 3.21836C15.741 3.21836 17.8093 5.30399 17.8093 7.89988C17.8093 10.4958 15.741 12.5814 13.1666 12.5814C10.5922 12.5814 8.52388 10.4958 8.52388 7.89988C8.52388 5.30399 10.5922 3.21836 13.1666 3.21836Z" fill="black"/>
</svg>
